<svg width="88" height="89" viewBox="0 0 88 89" fill="none" xmlns="http://www.w3.org/2000/svg">
<path d="M20 66V55.921C20 48.948 26.218 43 33.383 43H54.485C60.359 43 64 37.96 64 32.062V11.945C64 6.219 59.694 1.919 53.96 0.963999C50.331 0.359999 46.829 0.0849987 43.217 0.101999C39.606 0.118999 35.878 0.425999 32.843 0.963999C23.902 2.542 22 5.848 22 11.945V20H43V23H14.891C8.75097 23 3.37497 26.53 1.69297 33.552C-0.246026 41.599 -0.332026 46.754 1.69297 55.157C3.19497 61.411 6.78197 66 12.921 66H20V66ZM32.054 14.628C29.864 14.628 28.09 12.833 28.09 10.615C28.09 8.386 29.863 6.576 32.054 6.576C34.236 6.576 36.018 8.387 36.018 10.615C36.018 12.833 34.236 14.628 32.054 14.628ZM86.175 33.552C84.658 27.438 81.759 23 75.612 23H67V32.062C67 39.335 61.516 46 54.485 46H33.383C27.603 46 22 50.403 22 56.193V76.31C22 82.035 27.388 85.403 32.974 87.044C39.66 89.011 45.755 89.366 53.756 87.044C59.074 85.504 64 82.406 64 76.31V69H43V66H75.611C81.751 66 84.039 61.584 86.174 55.157C88.38 48.539 88.286 42.042 86.175 33.552V33.552ZM55.814 73.625C58.004 73.625 59.779 75.42 59.779 77.64C59.779 79.867 58.005 81.677 55.814 81.677C53.632 81.677 51.851 79.866 51.851 77.64C51.851 75.42 53.632 73.625 55.814 73.625Z" fill="#007BFF"/>
</svg>
