<svg width="1024" height="1024" viewBox="0 0 1024 1024" fill="none" xmlns="http://www.w3.org/2000/svg">
<path d="M858.846 174.733C787.014 216.193 720.173 255.044 653.072 293.455C575.931 337.606 497.829 380.156 421.978 426.407C407.938 434.967 394.828 457.658 394.498 474.098C392.308 584.09 393.558 694.142 394.208 804.174C394.258 812.484 395.918 822.864 400.958 828.734C439.958 874.085 523.04 887.955 574.951 858.335C644.422 818.694 713.443 778.273 783.044 738.853C824.735 715.242 844.865 680.401 844.415 632.491C843.805 567.39 844.265 502.288 844.265 429.877C796.875 456.908 755.774 480.288 714.753 503.808C705.113 509.339 695.903 515.599 686.253 521.089C594.481 573.29 608.801 552.339 607.711 656.681C607.591 667.791 608.601 678.991 607.561 690.002C605.631 710.372 609.871 740.523 598.491 748.923C573.701 767.223 541.48 777.533 510.81 785.093C489.459 790.363 474.039 780.163 474.829 751.703C476.639 686.182 475.819 620.56 474.849 554.999C474.199 510.869 490.529 480.268 530.85 457.828C645.382 394.097 757.984 326.905 871.686 261.664C942.417 221.074 975.328 239.614 976.448 323.295C978.128 448.868 977.378 574.49 976.558 700.072C976.448 716.232 974.108 735.482 965.208 747.843C945.547 775.143 925.317 805.814 897.756 822.964C798.775 884.595 696.593 941.086 595.731 999.707C541.01 1031.51 486.259 1032.33 431.278 1000.75C399.488 982.487 368.737 962.116 335.867 946.086C282.366 920.006 260.035 877.085 260.375 819.804C260.665 770.903 261.555 722.012 261.495 673.111C261.405 599.76 262.335 526.349 259.745 453.078C257.665 394.177 275.816 353.376 331.777 323.945C441.828 266.064 548.95 202.473 655.842 138.822C703.253 110.602 747.734 110.612 794.115 137.182C814.125 148.662 834.015 160.323 858.846 174.733Z" fill="#9FA09F"/>
<path d="M642.212 52.5807C529.83 117.522 420.268 180.783 310.766 244.164C285.766 258.634 261.215 273.904 236.045 288.085C198.504 309.225 181.124 341.476 181.104 383.936C181.044 526.239 180.934 668.551 180.854 810.854C180.844 822.904 180.854 834.954 180.854 847.484C104.343 831.444 48.8417 766.153 48.4516 692.252C47.8216 572.18 47.9716 452.108 48.1816 332.035C48.2816 272.314 75.8421 227.634 126.613 197.793C218.585 143.742 313.116 93.7814 402.858 36.3004C487.269 -17.7506 563.351 -10.7204 642.212 52.5807Z" fill="#9FA09F"/>
</svg>
