<svg width="930" height="1024" viewBox="0 0 930 1024" fill="none" xmlns="http://www.w3.org/2000/svg">
<path d="M810.832 174.73C739.002 216.19 672.162 255.04 605.062 293.45C527.922 337.6 449.822 380.15 373.972 426.4C359.932 434.96 346.822 457.65 346.492 474.09C344.302 584.08 345.552 694.13 346.202 804.16C346.252 812.47 347.912 822.85 352.952 828.72C391.952 874.07 475.032 887.94 526.942 858.32C596.412 818.68 665.432 778.26 735.032 738.84C776.722 715.23 796.852 680.39 796.402 632.48C795.792 567.38 796.252 502.28 796.252 429.87C748.862 456.9 707.762 480.28 666.742 503.8C657.102 509.33 647.892 515.59 638.242 521.08C546.472 573.28 560.792 552.33 559.702 656.67C559.582 667.78 560.592 678.98 559.552 689.99C557.622 710.36 561.862 740.51 550.482 748.91C525.692 767.21 493.472 777.52 462.802 785.08C441.452 790.35 426.032 780.15 426.822 751.69C428.632 686.17 427.812 620.55 426.842 554.99C426.192 510.86 442.522 480.26 482.842 457.82C597.372 394.09 709.972 326.9 823.672 261.66C894.402 221.07 927.312 239.61 928.432 323.29C930.112 448.86 929.362 574.48 928.542 700.06C928.432 716.22 926.092 735.47 917.192 747.83C897.532 775.13 877.302 805.8 849.742 822.95C750.762 884.58 648.582 941.07 547.722 999.69C493.002 1031.49 438.252 1032.31 383.272 1000.73C351.482 982.47 320.732 962.1 287.862 946.07C234.362 919.99 212.032 877.07 212.372 819.79C212.662 770.89 213.552 722 213.492 673.1C213.402 599.75 214.332 526.34 211.742 453.07C209.662 394.17 227.812 353.37 283.772 323.94C393.822 266.06 500.942 202.47 607.832 138.82C655.242 110.6 699.722 110.61 746.102 137.18C766.112 148.66 786.002 160.32 810.832 174.73Z" fill="#007BFF"/>
<path d="M594.202 52.5797C481.822 117.52 372.262 180.78 262.762 244.16C237.762 258.63 213.212 273.9 188.042 288.08C150.502 309.22 133.122 341.47 133.102 383.93C133.042 526.23 132.932 668.54 132.852 810.84C132.842 822.89 132.852 834.94 132.852 847.47C56.3417 831.43 0.841642 766.14 0.451642 692.24C-0.178358 572.17 -0.0283584 452.1 0.181642 332.03C0.281642 272.31 27.8416 227.63 78.6116 197.79C170.582 143.74 265.112 93.7797 354.852 36.2997C439.262 -17.7503 515.342 -10.7203 594.202 52.5797Z" fill="#007BFF"/>
</svg>
