<svg width="724" height="561" viewBox="0 0 724 561" fill="none" xmlns="http://www.w3.org/2000/svg">
<path fill-rule="evenodd" clip-rule="evenodd" d="M361.453 485.937C162.329 485.937 0.906006 377.828 0.906006 244.469C0.906006 111.109 162.329 3 361.453 3C560.578 3 722 111.109 722 244.469C722 377.828 560.578 485.937 361.453 485.937ZM416.641 97.406C265.289 97.406 142.594 171.314 142.594 262.484C142.594 353.654 265.289 427.562 416.641 427.562C567.992 427.562 679.687 377.033 679.687 262.484C679.687 147.971 567.992 97.406 416.641 97.406Z" fill="url(#paint0_linear)"/>
<path fill-rule="evenodd" clip-rule="evenodd" d="M550 377C550 377 571.822 383.585 584.5 390C588.899 392.226 596.51 396.668 602 402.5C607.378 408.212 610 414 610 414L696 559L557 559.062L492 437C492 437 478.69 414.131 470.5 407.5C463.668 401.969 460.755 400 454 400C449.298 400 420.974 400 420.974 400L421 558.974L298 559.026V152.938H545C545 152.938 657.5 154.967 657.5 262C657.5 369.033 550 377 550 377ZM496.5 241.024L422.037 240.976L422 310.026L496.5 310.002C496.5 310.002 531 309.895 531 274.877C531 239.155 496.5 241.024 496.5 241.024Z" fill="url(#paint1_linear)"/>
<defs>
<linearGradient id="paint0_linear" x1="0.906006" y1="3" x2="447.476" y2="669.793" gradientUnits="userSpaceOnUse">
<stop stop-color="#CBCED0"/>
<stop offset="1" stop-color="#84838B"/>
</linearGradient>
<linearGradient id="paint1_linear" x1="298" y1="152.938" x2="704.041" y2="550.857" gradientUnits="userSpaceOnUse">
<stop stop-color="#276DC3"/>
<stop offset="1" stop-color="#165CAA"/>
</linearGradient>
</defs>
</svg>
