<svg width="128" height="128" viewBox="0 0 128 128" fill="none" xmlns="http://www.w3.org/2000/svg">
<path d="M124.742 58.378L69.625 3.264C66.453 0.0899992 61.305 0.0899992 58.128 3.264L46.685 14.71L61.203 29.228C64.578 28.089 68.446 28.853 71.135 31.542C73.838 34.248 74.597 38.149 73.428 41.535L87.42 55.529C90.805 54.362 94.712 55.116 97.414 57.824C101.194 61.601 101.194 67.724 97.414 71.503C93.634 75.283 87.513 75.283 83.731 71.503C80.889 68.659 80.186 64.484 81.626 60.982L68.578 47.933L68.576 82.274C69.498 82.729 70.367 83.337 71.135 84.102C74.914 87.879 74.914 94 71.135 97.785C67.356 101.562 61.231 101.562 57.456 97.785C53.678 94.001 53.368 87.88 57.145 84.102C58.079 83.169 59 82.464 60 81.992V47.333C59 46.861 58.08 46.161 57.144 45.222C54.283 42.362 53.748 38.162 55.216 34.646L40.983 20.333L3.229 58.123C0.0540006 61.3 0.0740006 66.448 3.249 69.623L58.375 124.737C61.548 127.911 66.7 127.911 69.878 124.737L124.738 69.879C127.913 66.703 127.916 61.552 124.742 58.378V58.378Z" fill="#cccccc"/>
</svg>
