<svg width="108" height="107" viewBox="0 0 108 107" fill="none" xmlns="http://www.w3.org/2000/svg">
<path d="M105.24 48.6959L58.4063 2.01641C55.7115 -0.67214 51.3372 -0.67214 48.6385 2.01641L38.9139 11.7106L51.2498 24.0073C54.1176 23.0422 57.4047 23.6893 59.6895 25.9672C61.9862 28.2594 62.6308 31.5638 61.6382 34.432L73.5278 46.2828C76.4042 45.2948 79.723 45.9331 82.0198 48.2267C85.231 51.4266 85.231 56.6116 82.0198 59.8126C78.8082 63.0144 73.6064 63.0144 70.3933 59.8126C67.9788 57.404 67.3816 53.8677 68.6045 50.9023L57.5164 39.8494L57.5154 68.9344C58.2983 69.3207 59.0372 69.8363 59.6895 70.4837C62.8998 73.6833 62.8998 78.8674 59.6895 82.072C56.4783 85.2715 51.2742 85.2715 48.0662 82.072C44.8555 78.8674 44.8555 73.6833 48.0662 70.4837C48.8597 69.6942 49.7778 69.0966 50.7574 68.6961V39.3412C49.7778 38.942 48.8611 38.3487 48.0662 37.5535C45.6343 35.1313 45.0485 31.5734 46.2958 28.5967L34.1356 16.4732L2.0236 48.4801C-0.674534 51.1708 -0.674534 55.5311 2.0236 58.2201L48.8565 104.9C51.5528 107.588 55.9257 107.588 58.6257 104.9L105.24 58.4364C107.937 55.7465 107.937 51.3849 105.24 48.6959Z" fill="#F03C2E"/>
</svg>
